<?xml version="1.0" standalone="no"?>
<!DOCTYPE svg PUBLIC "-//W3C//DTD SVG 20010904//EN"
 "http://www.w3.org/TR/2001/REC-SVG-20010904/DTD/svg10.dtd">
<svg version="1.0" xmlns="http://www.w3.org/2000/svg"
 width="100.000000pt" height="100.000000pt" viewBox="0 0 100.000000 100.000000"
 preserveAspectRatio="xMidYMid meet">
<metadata>
Created by potrace 1.14, written by Peter Selinger 2001-2017
</metadata>
<g transform="translate(0.000000,100.000000) scale(0.100000,-0.100000)"
fill="#000000" stroke="none">
<path d="M425 764 c-48 -24 -73 -53 -96 -108 -12 -30 -30 -56 -43 -62 -14 -6
-24 -23 -30 -51 -6 -24 -13 -43 -17 -43 -4 0 -16 12 -27 28 -20 27 -20 28 -1
51 40 50 16 115 -44 115 -76 0 -123 -66 -115 -163 4 -41 10 -59 28 -73 12 -10
25 -18 29 -18 19 1 35 22 41 56 l6 39 23 -37 c22 -37 23 -37 83 -35 47 1 62
-2 66 -13 10 -31 88 -98 127 -110 79 -23 170 24 215 113 12 23 28 53 35 67 8
14 17 34 20 45 6 19 7 19 16 3 6 -10 16 -18 23 -18 8 0 19 -7 26 -15 13 -15
61 -21 74 -8 4 4 25 6 46 4 34 -2 41 1 51 23 16 34 5 44 -21 21 -11 -10 -23
-16 -26 -12 -3 3 4 10 15 17 25 13 29 61 7 79 -19 16 -54 -1 -66 -32 -6 -15
-9 -17 -9 -6 -1 9 -8 22 -16 29 -20 16 -62 -10 -68 -42 -3 -17 -5 -14 -6 10
-1 35 -15 41 -43 15 -11 -9 -18 -11 -18 -5 0 7 -7 12 -15 12 -9 0 -18 8 -22
18 -33 95 -163 151 -248 106z m-245 -119 c10 -12 10 -21 2 -40 -15 -33 -28
-32 -27 2 0 42 -31 43 -40 1 -4 -18 -12 -38 -17 -45 -6 -7 -5 -14 2 -18 13 -8
13 -55 0 -55 -16 0 -23 67 -10 104 11 35 43 66 66 66 6 0 17 -7 24 -15z m732
-37 c-7 -7 -12 -8 -12 -2 0 14 12 26 19 19 2 -3 -1 -11 -7 -17z m-66 -14 c8 3
14 -1 14 -10 0 -19 -28 -30 -42 -16 -6 6 -7 20 -2 33 7 21 8 21 12 6 2 -11 9
-16 18 -13z m-544 -46 c-7 -7 -12 -8 -12 -2 0 14 12 26 19 19 2 -3 -1 -11 -7
-17z"/>
<path d="M177 283 c-4 -3 -7 -17 -7 -30 0 -27 25 -41 49 -26 12 7 20 6 29 -3
15 -16 39 -8 45 14 4 15 5 15 6 0 1 -22 8 -23 28 -2 13 12 13 18 4 24 -10 5
-9 9 3 13 12 5 16 0 16 -23 0 -34 5 -37 28 -13 16 16 17 16 20 0 2 -11 13 -17
30 -16 23 0 24 2 8 8 -19 7 -19 8 0 15 19 8 19 8 -1 16 -17 7 -17 9 -2 9 9 1
17 6 17 11 0 6 -32 10 -75 10 -65 0 -75 -2 -75 -17 -1 -17 -1 -17 -11 0 -11
19 -49 23 -49 5 0 -9 -3 -9 -12 0 -13 13 -41 16 -51 5z m223 -13 c0 -5 -8 -10
-17 -10 -15 0 -16 2 -3 10 19 12 20 12 20 0z m-186 -6 c12 -5 13 -9 3 -19 -14
-15 -27 -10 -27 11 0 16 2 16 24 8z m64 -11 c-4 -22 -22 -20 -26 1 -2 10 3 16
13 16 10 0 15 -7 13 -17z"/>
<path d="M460 255 c0 -30 3 -35 23 -34 20 0 20 1 3 8 -19 7 -19 8 0 15 19 8
19 8 -1 16 -17 7 -17 9 -2 9 24 1 22 21 -3 21 -16 0 -20 -7 -20 -35z"/>
<path d="M530 255 c0 -34 13 -47 23 -22 4 9 8 8 17 -3 9 -11 13 -12 17 -3 3
10 8 9 19 -2 18 -17 44 -9 44 14 1 15 1 15 10 0 7 -12 24 -17 60 -17 l50 0 0
34 c0 32 -2 33 -35 32 -30 -1 -35 -5 -35 -25 0 -12 -4 -23 -10 -23 -5 0 -10
11 -10 25 0 14 -4 25 -10 25 -5 0 -10 -8 -10 -17 -1 -17 -1 -17 -11 0 -5 9
-18 17 -29 17 -10 0 -21 -8 -23 -17 -4 -17 -5 -17 -6 0 -1 21 -21 23 -21 2 0
-8 -4 -15 -10 -15 -5 0 -10 7 -10 15 0 8 -4 15 -10 15 -5 0 -10 -16 -10 -35z
m108 -2 c-4 -22 -22 -20 -26 1 -2 10 3 16 13 16 10 0 15 -7 13 -17z m112 -14
c0 -4 -7 -6 -15 -3 -8 4 -15 10 -15 15 0 4 7 6 15 3 8 -4 15 -10 15 -15z"/>
<path d="M780 255 c0 -32 3 -35 28 -34 19 1 21 3 8 6 -15 4 -16 7 -5 15 11 8
11 11 1 15 -10 4 -9 8 5 19 17 12 16 13 -9 14 -25 0 -28 -3 -28 -35z"/>
</g>
</svg>
